<svg width="157" height="41" viewBox="0 0 157 41" fill="none" xmlns="http://www.w3.org/2000/svg">
<path fill-rule="evenodd" clip-rule="evenodd" d="M35.5925 6.26483H41.2826V1.7771H35.5925V6.26483ZM32.3504 21.3991C29.914 21.3991 29.0555 20.6325 29.0555 17.7939C29.0555 14.9552 29.914 14.1604 32.3504 14.1604C34.7868 14.1604 35.6449 14.9552 35.6449 17.7939C35.6449 20.6325 34.7868 21.3991 32.3504 21.3991ZM32.3496 8.30615C26.5366 8.30615 23.4147 12.3898 23.4147 17.798C23.4147 23.2062 26.5366 27.2532 32.3496 27.2532C38.1627 27.2532 41.2847 23.2062 41.2847 17.798C41.2847 12.3898 38.1627 8.30615 32.3496 8.30615ZM41.2852 38.4538V40.9999H35.5929L35.5754 38.4538C35.5754 36.6277 34.1314 35.1471 32.3502 35.1471L29.8671 35.1294V29.293H32.3502C37.2849 29.293 41.2852 33.3944 41.2852 38.4538ZM156.262 8.30615V14.1426H147.854V31.4275H142.161V14.1434C142.161 10.9196 144.711 8.30615 147.855 8.30615H156.262ZM127.846 25.5911C123.992 25.5911 122.635 24.334 122.635 19.8444C122.635 15.3547 123.992 14.1426 127.846 14.1426C131.7 14.1426 133.057 15.3547 133.057 19.8444C133.057 24.334 131.7 25.5911 127.846 25.5911ZM127.849 8.30664C120.756 8.30664 116.946 13.2452 116.946 19.8449C116.946 26.4444 120.756 31.428 127.849 31.428C134.943 31.428 138.752 26.4444 138.752 19.8449C138.752 13.2452 134.943 8.30664 127.849 8.30664ZM102.53 25.5911C98.8959 25.5911 97.3195 24.4686 97.3195 19.8444C97.3195 15.2651 98.8959 14.1426 102.53 14.1426C106.165 14.1426 107.741 15.2651 107.741 19.8444C107.741 24.4686 106.165 25.5911 102.53 25.5911ZM107.741 10.8651C106.252 9.29368 104.063 8.30612 101.436 8.30612C94.5607 8.30612 91.6266 13.2447 91.6266 19.8444C91.6266 26.4439 94.5607 31.4275 101.436 31.4275C104.063 31.4275 106.252 30.4399 107.741 28.8236V31.4275H113.433V0H107.741V10.8651ZM88.2366 14.1439V31.428H82.5441V14.1431H73.3485V31.428H67.656V14.1439C67.656 10.9201 70.2051 8.30664 73.3495 8.30664H82.5433C85.6876 8.30664 88.2366 10.9201 88.2366 14.1439ZM49.8753 17.5993C50.1378 15.1749 51.408 14.1426 54.0351 14.1426C56.7501 14.1426 58.0198 15.0403 58.1953 17.5993H49.8753ZM54.1217 8.30615C46.8527 8.30615 44.1378 13.4689 44.1378 19.8892C44.1378 24.1093 45.583 31.4275 55.6981 31.4275C57.362 31.4275 59.0264 31.4275 62.4417 30.6193V24.8726C59.4205 25.5911 57.4499 25.5911 56.1359 25.5911C52.0199 25.5911 50.5752 24.334 50.0931 22.0889H63.9306V19.3955C63.9306 13.1098 61.2157 8.30615 54.1217 8.30615ZM9.81122 26.13C6.83379 26.13 5.69519 25.5914 5.69519 23.7952C5.69519 21.9997 6.83379 21.4609 9.81122 21.4609C12.7886 21.4609 13.9272 21.9997 13.9272 23.7952C13.9272 25.5914 12.7886 26.13 9.81122 26.13ZM19.6174 14.1434C19.6174 10.9196 17.0684 8.30615 13.9241 8.30615H2.54004V14.1426H13.9249V18.4076C12.8305 17.1953 11.1224 16.1628 7.83833 16.1628C2.49625 16.1628 0 19.6645 0 23.7949C0 27.9255 2.49625 31.4275 7.83833 31.4275C11.1224 31.4275 12.8305 30.3498 13.9249 29.1828C13.9249 30.4226 14.9051 31.4275 16.1142 31.4275H22.3639V25.5911H19.6174V14.1434Z" fill="#332DE6"/>
</svg>
